<svg xmlns="http://www.w3.org/2000/svg" viewBox="0 0 900 300" role="img" aria-labelledby="title desc"><title id="title">Layers of a human body model</title><desc id="desc">Kinematics, surface geometry, dynamics, and anatomy as connected modeling layers.</desc><rect width="900" height="300" fill="#f7f5ef"/><g font-family="Arial,sans-serif" text-anchor="middle"><rect x="35" y="70" width="185" height="150" rx="18" fill="#d9eeea" stroke="#0d6b70" stroke-width="3"/><text x="127" y="118" font-size="24" font-weight="700">Kinematics</text><text x="127" y="153" font-size="16">joints · links</text><text x="127" y="178" font-size="16">pose θ</text><rect x="250" y="70" width="185" height="150" rx="18" fill="#fff0e9" stroke="#e46f50" stroke-width="3"/><text x="342" y="118" font-size="24" font-weight="700">Surface</text><text x="342" y="153" font-size="16">mesh · volume</text><text x="342" y="178" font-size="16">shape β</text><rect x="465" y="70" width="185" height="150" rx="18" fill="#f8edc3" stroke="#c49a28" stroke-width="3"/><text x="557" y="118" font-size="24" font-weight="700">Dynamics</text><text x="557" y="153" font-size="16">time · contact</text><text x="557" y="178" font-size="16">stability</text><rect x="680" y="70" width="185" height="150" rx="18" fill="#e6e0f3" stroke="#7253a5" stroke-width="3"/><text x="772" y="118" font-size="24" font-weight="700">Anatomy</text><text x="772" y="153" font-size="16">spine · limits</text><text x="772" y="178" font-size="16">meaning</text><path d="M225 145h20M440 145h20M655 145h20" stroke="#102a2e" stroke-width="4" marker-end="url(#a)"/></g><defs><marker id="a" markerWidth="10" markerHeight="10" refX="7" refY="3" orient="auto"><path d="M0 0L0 6L8 3z" fill="#102a2e"/></marker></defs></svg>
